<svg width="28" height="26" viewBox="0 0 28 26" xmlns="http://www.w3.org/2000/svg">
    <path d="M21.368 10.984h-1.355l-3.39 3.39a3.647 3.647 0 0 1-5.202 0l-3.39-3.39h-1.4A6.632 6.632 0 0 0 0 17.615v1.474a6.623 6.623 0 0 0 6.632 6.631h14.736A6.632 6.632 0 0 0 28 19.09v-1.474a6.642 6.642 0 0 0-6.632-6.631zm0 8.473a1.842 1.842 0 1 1-.03-3.684 1.842 1.842 0 0 1 .03 3.684zM8.562 8.39a1.467 1.467 0 0 1 0-2.078 1.476 1.476 0 0 1 2.078 0l1.901 1.901v-6.75a1.474 1.474 0 0 1 2.947 0v6.75l1.916-1.9a1.476 1.476 0 0 1 2.078 0 1.467 1.467 0 0 1 0 2.077l-2.594 2.594-1.827 1.827a1.442 1.442 0 0 1-2.078 0L8.563 8.39z" fill="#FFF" fill-rule="nonzero"/>
</svg>
